<svg width="48" height="48" viewBox="0 0 48 48" fill="none" xmlns="http://www.w3.org/2000/svg">
<g clip-path="url(#clip0_134_3)">
<path d="M13.1865 13.068L10.083 9.96301L10.095 32.3903L10.1325 33.4373C10.1475 33.9323 10.2413 34.4873 10.3913 35.0648L34.9725 43.7348L41.1225 41.0123L41.1278 41.0033L13.185 13.068H13.1865Z" fill="#00C4B3"/>
<path d="M10.392 35.0648H10.3943C10.392 35.0558 10.3883 35.0453 10.3838 35.0348C10.389 35.046 10.389 35.0573 10.3913 35.0648H10.392ZM41.1165 41.0123L34.9665 43.7348L10.389 35.0648C10.8578 36.8678 11.898 38.8943 13.0155 39.9998L21.033 47.9775L38.874 48L41.109 41.0123H41.1165Z" fill="#22D3C5"/>
<path d="M10.1669 9.96375L0.609691 24.3975C-0.183809 25.245 0.212191 26.994 1.48944 28.2825L7.00644 33.8445L10.4744 35.067C10.3244 34.491 10.2299 33.942 10.2157 33.4395L10.1782 32.3925L10.1669 9.96525V9.96375Z" fill="#0075C9"/>
<path d="M35.1749 10.2525C34.5974 10.1063 34.0439 10.014 33.5451 9.99976L32.4366 9.95926L10.0829 9.96451L41.1269 41.004L43.8539 34.854L35.1764 10.254L35.1749 10.2525Z" fill="#0075C9"/>
<path d="M35.1465 10.2473C35.1562 10.251 35.1667 10.2533 35.175 10.2548V10.2518C35.1652 10.2495 35.1562 10.2495 35.1465 10.2458V10.2473ZM40.1077 12.8858C38.979 11.7495 36.9802 10.7108 35.175 10.2548L43.8525 34.8525L41.1225 41.0025L47.784 38.874L47.799 20.61L40.107 12.885L40.1077 12.8858Z" fill="#00A8E1"/>
<path d="M33.9585 6.80628L28.4085 1.28628C27.114 0.013527 25.365 -0.383973 24.525 0.408027L10.092 9.96303L32.4458 9.95778L33.5543 9.99828C34.053 10.0133 34.6073 10.1048 35.184 10.251L33.96 6.80478L33.9585 6.80628Z" fill="#00C4B3"/>
</g>
<defs>
<clipPath id="clip0_134_3">
<rect width="48" height="48" fill="white"/>
</clipPath>
</defs>
</svg>
