<svg width="48" height="48" viewBox="0 0 48 48" fill="none" xmlns="http://www.w3.org/2000/svg">
<path fill-rule="evenodd" clip-rule="evenodd" d="M7.20018 36.0345H8.32485V27.1236L10.0813 34.8928C10.2802 35.8266 10.5661 36.1726 11.1195 36.1726C11.6729 36.1726 11.9416 35.8262 12.1472 34.8928L13.8949 27.1236V36.0345H15.0283V27.1236C15.0283 26.2588 14.8551 25.8426 14.4917 25.6177C13.6353 25.0988 13.0642 25.5487 12.8047 26.7075L11.0832 34.3901L9.42199 26.7075C9.17107 25.5487 8.59129 25.0988 7.72626 25.6177C7.3714 25.8426 7.19844 26.2584 7.19844 27.1236L7.19824 36.0345H7.20018ZM15.9645 28.7846H17.0979V33.6816C17.0894 33.9581 17.1411 34.5813 17.7572 34.598C18.0771 34.6155 20.1969 34.598 20.214 34.598V28.7497H21.3474V36.7613C21.3474 38.7337 20.1258 39.1657 19.5565 39.1836H15.9924V37.6788H19.5656C20.2924 37.5229 20.2059 36.7966 20.2059 36.5542V35.9655H17.8091C16.693 35.948 15.9748 34.9618 15.9664 33.8371V28.7838L15.9645 28.7846ZM40.2757 23.1089C39.5838 23.074 39.0471 23.2128 38.5972 23.5937C38.4677 23.6984 38.2598 23.6984 38.2427 24.0265C38.3119 24.1641 38.3203 24.3895 38.381 24.5803C38.4847 24.9266 38.6666 25.3931 38.8308 25.6351C39.0127 25.9124 39.1944 26.1889 39.3845 26.4313C39.7219 26.8463 40.1025 27.0887 40.4312 27.504C40.6216 27.7464 40.8118 28.0578 41.0022 28.3177C41.0992 28.4561 41.158 28.6815 41.2791 28.7675V28.7152C41.2186 28.5601 41.2012 28.3351 41.1409 28.1614C41.0542 27.9888 40.9677 27.8325 40.881 27.6599C40.6303 26.9851 40.3187 26.3964 39.9813 25.9124C39.7044 25.5316 39.099 25.0127 38.9866 24.3728L38.9695 24.3379C39.1595 24.303 39.3845 24.1645 39.5663 24.0606C39.8607 23.9055 40.1287 23.9396 40.4312 23.7841C40.5698 23.7143 40.7081 23.6282 40.8467 23.5417V23.3866C40.691 23.0751 40.5785 22.6598 40.4143 22.3658C39.9732 21.6045 39.4884 20.8603 38.9866 20.2375C38.7184 19.8915 38.3722 19.6662 38.0868 19.3726C37.9827 19.2687 37.8099 19.2167 37.7494 19.0438C37.5933 18.6637 37.507 18.1615 37.3946 17.7112C37.1438 16.7595 36.9014 15.7043 36.6852 14.7006C36.5295 14.0258 36.4341 13.351 36.2441 12.7282C35.3529 9.78655 34.3837 8.00453 32.8957 6.25663C32.5757 5.89324 32.1951 5.73695 31.7904 5.54692L31.1416 5.47711C31.0029 5.35611 30.8647 5.02724 30.7435 4.87134C30.2504 4.2485 28.9785 2.8989 28.6149 4.68131C28.3813 5.80598 28.9611 6.9132 29.1579 7.48446C29.3052 7.88236 29.4953 8.33223 29.5994 8.7821C29.6576 9.07607 29.677 9.38787 29.7377 9.69929C29.8759 10.4606 30.0058 11.3087 30.1875 12.0184C30.2845 12.3818 30.3863 12.7631 30.5075 13.0915C30.5767 13.2816 30.6979 13.3684 30.7237 13.6799C30.6025 14.0262 30.5942 14.5447 30.5249 14.9779C30.2133 16.9333 30.3345 19.3556 30.7757 20.7913C30.9143 21.2237 31.241 22.1758 31.6843 21.812C32.0737 21.5006 31.9868 20.5144 32.0993 19.6492C32.1255 19.4417 32.108 19.3032 32.1598 19.1644V19.1993L32.5146 20.6354C32.7828 21.4832 33.2501 22.3658 33.6393 22.9545C33.8468 23.266 34.0112 23.8027 34.2707 23.9927V23.9404H34.2536C34.2017 23.7852 34.1237 23.7154 34.0545 23.5944C33.8988 23.283 33.7258 22.9022 33.6046 22.5562C33.2414 21.5875 32.9215 20.5144 32.6358 19.4072C32.4972 18.8708 32.376 18.2825 32.2639 17.7461C32.2116 17.5383 32.2116 17.2265 32.1253 17.1233C31.9954 17.5034 31.8053 17.833 31.7097 18.2999C31.5453 19.0438 31.5282 19.961 31.4677 20.9127C31.4328 20.9301 31.4483 20.9127 31.4328 20.9476C31.1563 20.8095 31.0609 20.2379 30.9572 19.7539C30.6977 18.5253 30.6543 16.5528 30.8792 15.1338C30.9397 14.7704 31.1995 13.6283 31.0958 13.2823C31.0435 12.9535 30.8709 12.7634 30.7755 12.5036C30.663 12.1747 30.5422 11.7598 30.4642 11.3964C30.2568 10.4268 30.153 9.35452 29.9279 8.38536C29.8238 7.93549 29.6423 7.46817 29.4951 7.05321C29.3307 6.58589 29.1493 6.25702 29.0194 5.7036C28.9762 5.51357 28.9157 5.20176 28.9849 4.99389C29.002 4.85544 29.0369 4.80386 29.1057 4.76896C29.2182 4.57893 29.5385 4.82092 29.651 4.92408C29.9709 5.18392 30.2391 5.42592 30.5073 5.78892C30.6285 5.96189 30.7584 6.29076 30.9141 6.37763H31.096C31.3729 6.49863 31.6841 6.41253 31.9434 6.56766C32.402 6.8624 32.8171 7.29443 33.1894 7.76214C34.3226 9.19823 35.2573 11.2401 35.8887 13.6802C35.9924 14.0781 36.0356 14.4415 36.131 14.8569C36.3129 15.705 36.5379 16.5699 36.7192 17.401C36.9011 18.2142 37.074 19.0453 37.3335 19.7201C37.4634 20.0835 37.9823 20.2736 38.2158 20.464C38.3889 20.6191 38.6569 20.7587 38.813 20.9487C39.107 21.3121 39.4011 21.7275 39.6778 22.1254C39.8161 22.3325 40.2489 22.7653 40.2747 23.1104L40.2757 23.1089ZM31.4528 8.07239C31.3333 8.07028 31.2141 8.09935 31.0983 8.15888V8.19378H31.1154C31.1846 8.47068 31.3058 8.6611 31.3923 8.90349L31.5914 9.7342L31.6085 9.69929C31.7297 9.52632 31.7904 9.24942 31.7904 8.83446C31.7384 8.71346 31.7299 8.59207 31.6866 8.47107C31.6347 8.2981 31.5222 8.21123 31.4528 8.07317V8.07239Z" fill="#00678C"/>
<path fill-rule="evenodd" clip-rule="evenodd" d="M22.2111 36.0345H25.4641C25.8447 36.0345 26.2083 35.8794 26.5023 35.6021C26.9954 35.1522 27.229 34.5472 27.229 33.751V32.09C27.229 31.4501 26.9609 30.8439 26.4247 30.429C26.1478 30.2215 25.8017 30.1001 25.4643 30.1001H24.0972C23.6386 30.1001 23.4224 29.8228 23.3617 29.2178C23.3532 29.1488 23.3532 29.0794 23.3532 29.0103V27.9892C23.3532 27.9368 23.3532 27.8682 23.3617 27.7992C23.4222 27.3319 23.5434 27.2105 23.9434 27.1244H27.2742V25.6185H24.1077C23.6491 25.6185 23.4069 25.6708 23.1905 25.8093C22.5242 26.2242 22.2301 26.882 22.2301 28.0408V29.3567C22.2301 30.3766 22.8011 31.2426 23.7701 31.4501C23.8738 31.4675 23.9863 31.4675 24.0988 31.4675H25.2669C25.3101 31.4675 25.3532 31.4675 25.3877 31.485C25.7425 31.554 25.8982 31.675 26.002 31.9341C26.0712 32.0725 26.0887 32.1939 26.0887 32.3498V33.6645C26.0887 33.8197 26.0367 34.0283 25.933 34.2009C25.8292 34.3735 25.6644 34.4949 25.4482 34.5123C25.4049 34.5123 25.3793 34.5298 25.3357 34.5298H22.2111V36.0345ZM34.2712 33.4221C34.2712 34.9618 34.853 35.8266 36.0106 36.0004C36.1231 36.0178 36.2268 36.0345 36.3393 36.0345H39.2809V34.5298H36.3135C35.6556 34.5298 35.4048 34.2009 35.4048 33.4051V25.6185H34.2691V33.4225L34.2712 33.4221ZM27.9469 33.4908V28.1273C27.9469 26.7602 28.4313 25.9291 29.3746 25.67C29.4784 25.6526 29.5821 25.6351 29.6771 25.6351H31.8226C31.935 25.6351 32.0304 25.6526 32.1429 25.67C33.0859 25.9291 33.5615 26.7598 33.5615 28.1273V33.4908C33.5615 34.598 33.3628 35.1867 32.8953 35.585L34.0025 37.5916H32.6963L31.7966 35.9655L30.8879 36.0694H29.6768C29.4548 36.0672 29.2339 36.0092 29.0192 35.8968C28.3017 35.4981 27.9469 34.7372 27.9469 33.4908V33.4908ZM29.1666 33.3706C29.1666 33.4396 29.186 33.5082 29.1928 33.5955C29.2533 34.218 29.5472 34.5643 29.9971 34.5643H31.0182L30.084 32.8683H31.3901L32.2119 34.3568C32.368 34.1834 32.463 33.9411 32.4976 33.6296C32.5063 33.5606 32.5063 33.4745 32.5063 33.4047V28.2653C32.5063 28.1963 32.5063 28.1277 32.4976 28.0578C32.4371 27.4699 32.1431 27.1414 31.7018 27.1414H29.9973C29.4955 27.1414 29.1668 27.5738 29.1668 28.2653L29.1666 33.3706Z" fill="#CE8B2C"/>
</svg>
